<?xml version="1.0" encoding="UTF-8"?>
<!DOCTYPE svg PUBLIC "-//W3C//DTD SVG 1.1//EN" "http://www.w3.org/Graphics/SVG/1.1/DTD/svg11.dtd">
<svg xmlns="http://www.w3.org/2000/svg" version="1.1" width="850px" height="399px" style="shape-rendering:geometricPrecision; text-rendering:geometricPrecision; image-rendering:optimizeQuality; fill-rule:evenodd; clip-rule:evenodd" xmlns:xlink="http://www.w3.org/1999/xlink">
<g><path style="opacity:0.992" fill="#0082c9" d="M 394.5,-0.5 C 414.833,-0.5 435.167,-0.5 455.5,-0.5C 532.26,15.5883 583.927,60.5883 610.5,134.5C 634.945,90.5142 672.445,67.5142 723,65.5C 771.943,67.1265 808.943,88.7932 834,130.5C 842.124,146.033 847.291,162.366 849.5,179.5C 849.5,187.5 849.5,195.5 849.5,203.5C 841.248,258.26 810.915,294.76 758.5,313C 693.368,326.971 643.868,305.471 610,248.5C 589.583,309.917 549.083,352.084 488.5,375C 405.996,399.252 335.496,380.086 277,317.5C 259.776,296.729 246.942,273.396 238.5,247.5C 204.836,305.237 155.17,327.07 89.5,313C 46.735,299.235 18.235,271.068 4,228.5C 2.46782,222.371 0.967815,216.371 -0.5,210.5C -0.5,197.833 -0.5,185.167 -0.5,172.5C 8.802,126.089 35.1353,93.256 78.5,74C 133.703,55.5091 181.203,67.3424 221,109.5C 227.744,117.984 233.744,126.984 239,136.5C 264.496,60.8316 316.33,15.1649 394.5,-0.5 Z M 413.5,72.5 C 463.987,70.655 502.487,90.9884 529,133.5C 548.613,172.996 548.28,212.329 528,251.5C 495.148,300.794 449.648,318.961 391.5,306C 340.941,288.769 312.441,253.602 306,200.5C 305.011,140.272 332.511,99.439 388.5,78C 396.874,75.6946 405.207,73.8613 413.5,72.5 Z M 115.5,140.5 C 145.621,138.164 165.454,151.164 175,179.5C 179.411,206.512 169.577,226.345 145.5,239C 119.912,247.802 98.7451,241.635 82,220.5C 70.3999,200.592 70.7333,180.926 83,161.5C 91.332,150.587 102.165,143.587 115.5,140.5 Z M 714.5,140.5 C 746.309,138.499 766.143,152.833 774,183.5C 775.434,219.072 758.434,239.072 723,243.5C 691.6,240.267 674.434,222.934 671.5,191.5C 674,164.346 688.334,147.346 714.5,140.5 Z"/></g>
</svg>
